<svg aria-hidden="true" style="position: absolute; " version="1.1" xmlns="http://www.w3.org/2000/svg" xmlns:xlink="http://www.w3.org/1999/xlink">
<defs>
<symbol id="icon-logo" viewBox="0 0 179 32">
<path fill="#1b2d1e"  d="M0 32h179.215v-32.038h-179.215z"></path>
<path fill="#fefefe"  d="M20.055 22.992l-3.384-1.834v1.366c0 0.537-0.006 0.957-0.024 1.26-0.018 0.297-0.079 0.589-0.183 0.869-0.098 0.28-0.219 0.484-0.353 0.606-0.14 0.128-0.365 0.245-0.676 0.362-0.317 0.111-0.651 0.192-1.011 0.239-0.359 0.041-0.853 0.087-1.48 0.134l0.052 1.632h18.267c0.152-0.561 0.326-2.11 0.624-3.417s0.499-2.263 0.609-2.882l-1.090-0.134c-0.548 1.389-1.182 2.515-1.906 3.367-0.043 0.047-0.088 0.092-0.134 0.136l-12.829-7.799 23.973-0.676v-1.654l-24.136-0.698 12.138-7.379c0.415 0.738 0.756 1.637 1.018 2.703l1.145-0.152c-0.237-3.057-0.34-5.426-0.351-5.829h-16.8l-0.026 1.71c0.548 0.036 0.962 0.071 1.248 0.1 0.286 0.035 0.572 0.105 0.853 0.21 0.286 0.099 0.481 0.215 0.585 0.338 0.097 0.129 0.194 0.333 0.292 0.619 0.098 0.28 0.152 0.589 0.171 0.91 0.019 0.327 0.024 0.782 0.024 1.36v1.105l3.373-1.828v-1.448c0-0.525 0.061-0.84 0.189-0.957 0.121-0.111 0.481-0.169 1.078-0.169h2.783c1.334 0 2.295 0.071 2.898 0.211l0.123 0.032-14.876 8.062c-0.931-0.329-2.383-0.389-3.688-0.389-2.966 0-4.385 1.022-4.385 2.283s1.42 2.284 4.385 2.284c1.332 0 2.78-0.081 3.719-0.423l15.359 8.325c-0.661 0.127-1.608 0.191-2.84 0.191-1.084 0-1.906-0.023-2.478-0.076-0.573-0.052-1.023-0.175-1.358-0.367-0.341-0.204-0.578-0.519-0.712-0.95-0.098-0.325-0.16-0.777-0.184-1.352zM8.55 14.768v0c2.033 0 3.68 0.265 3.68 0.593s-1.647 0.593-3.68 0.593c-2.032 0-2.695-0.266-2.695-0.593s0.663-0.593 2.695-0.593z"></path>
<path fill="#fefefe"  d="M57.819 25.576l-3.466 2.051c-0.315 0-0.656-0.077-1.022-0.225-0.36-0.148-0.643-0.341-0.862-0.547-0.475-0.444-0.745-0.808-0.913-1.503-0.122 0.090-0.387 0.263-0.778 0.527-0.934 0.631-2.769 1.747-3.903 1.747-1.383 0-2.527-0.482-3.434-1.446-0.9-0.971-1.357-2.096-1.357-3.376 0-0.938 0.264-1.73 0.784-2.359 0.521-0.637 1.329-1.146 2.418-1.497 3.225-1.043 5.272-2.134 6.127-2.803v-0.694c0-1.383-0.108-1.941-0.7-2.706s-1.389-1.151-2.392-1.151c-0.694 0-1.287 0.212-1.736 0.695-0.419 0.451-0.965 1.080-1.332 2.364-0.186 0.651-0.604 0.978-1.248 0.978-0.386 0-0.771-0.181-1.157-0.547-0.997-0.963-0.429-2.256 0.588-2.992 0.729-0.528 1.671-1.057 2.797-1.62 1.124-0.562 2.162-1.071 3.176-1.164 1.3-0.12 2.493 0.573 3.391 1.294 0.67 0.538 1.132 1.203 1.389 1.987s0.386 1.743 0.386 2.874v6.607c0 0.829 0.134 1.428 0.412 1.8 0.275 0.367 0.617 0.553 1.016 0.553 0.431 0 0.894-0.123 1.395-0.373l0.418 1.527zM51.415 23.346v0-4.936c-0.038 0.026-1.167 0.56-3.395 1.582-0.813 0.373-1.417 0.771-1.807 1.215-1.554 1.771 0.593 3.457 2.167 3.457 0.463 0 0.99-0.129 1.581-0.393s1.074-0.572 1.453-0.926z"></path>
<path fill="#fefefe"  d="M156.446 25.595l-3.466 2.051c-0.315 0-0.656-0.077-1.022-0.225-0.36-0.148-0.643-0.341-0.862-0.547-0.475-0.444-0.745-0.808-0.913-1.503-0.122 0.090-0.387 0.263-0.778 0.527-0.934 0.631-2.769 1.748-3.903 1.748-1.383 0-2.527-0.482-3.434-1.446-0.9-0.971-1.357-2.096-1.357-3.376 0-0.938 0.264-1.73 0.784-2.359 0.521-0.637 1.329-1.146 2.418-1.497 3.225-1.043 5.272-2.134 6.127-2.803v-0.694c0-1.383-0.108-1.941-0.7-2.706s-1.389-1.151-2.392-1.151c-0.694 0-1.287 0.212-1.736 0.695-0.419 0.451-0.965 1.080-1.332 2.364-0.186 0.651-0.605 0.978-1.248 0.978-0.386 0-0.771-0.18-1.157-0.547-0.997-0.963-0.429-2.256 0.588-2.992 0.73-0.528 1.671-1.057 2.797-1.62 1.124-0.562 2.162-1.071 3.176-1.164 1.299-0.12 2.493 0.573 3.391 1.294 0.67 0.538 1.132 1.203 1.388 1.987s0.386 1.743 0.386 2.874v6.606c0 0.829 0.134 1.428 0.412 1.8 0.275 0.367 0.617 0.553 1.016 0.553 0.431 0 0.894-0.123 1.395-0.373l0.418 1.527zM150.042 23.364v0-4.936c-0.038 0.026-1.167 0.56-3.395 1.582-0.813 0.373-1.417 0.771-1.807 1.215-1.554 1.771 0.593 3.457 2.167 3.457 0.463 0 0.99-0.129 1.581-0.393s1.074-0.572 1.453-0.926z"></path>
<path fill="#fefefe"  d="M106.116 10.619h-1.782l-0.216-10.019h2.327z"></path>
<path fill="#fefefe" d="M104.334 21.343h1.782l0.329 10.019h-2.328z"></path>
<path fill="#fefefe"  d="M110.731 15.058v1.782l10.019 0.216v-2.328z"></path>
<path fill="#fefefe"  d="M99.608 16.727v-1.782l-10.019-0.216v2.328z"></path>
<path fill="#fefefe"  d="M107.89 16.040c0 1.493-1.21 2.704-2.704 2.704s-2.704-1.21-2.704-2.704 1.21-2.704 2.704-2.704c1.493 0 2.704 1.21 2.704 2.704z"></path>
<path fill="#fefefe"  d="M105.158 27.686c-6.42 0-11.644-5.223-11.644-11.644s5.223-11.644 11.644-11.644c3.505 0 6.787 1.555 9.010 4.267l-1.648 1.138c-1.918-2.022-4.588-3.181-7.331-3.181-5.195 0-9.422 4.227-9.422 9.422s4.227 9.422 9.422 9.422c5.195 0 9.422-4.227 9.422-9.422 0-0.361-0.021-0.725-0.061-1.081l2.196-0.078c0.038 0.382 0.057 0.771 0.057 1.158 0 6.42-5.223 11.644-11.644 11.644z"></path>
<path fill="#fefefe" d="M135.894 22.827l1.003 0.892c-0.772 0.973-1.625 1.774-2.556 2.401-0.93 0.625-1.706 1.034-2.335 1.22-1.964 0.577-4.561 0.176-6.251-0.938-1.201-0.79-2.102-1.81-2.699-3.075-0.603-1.259-0.902-2.647-0.902-4.171 0-2.686 0.863-4.976 2.602-6.877 0.824-0.928 1.752-1.655 2.783-2.18s2.063-0.785 3.088-0.785h0.039c1.648 0 3.068 0.617 4.255 1.849 1.194 1.239 1.821 3.045 1.8 4.654-0.005 0.41-0.099 0.694-0.221 0.863-0.125 0.174-0.355 0.31-0.714 0.376-0.452 0.082-1.771 0.185-3.944 0.337s-4.308 0.26-6.416 0.324c0.013 1.252 0.19 1.99 0.541 2.969 0.355 0.987 0.817 1.764 1.389 2.342 0.571 0.57 1.193 1.005 1.875 1.297 0.674 0.292 1.375 0.441 2.102 0.441 1.635 0 3.153-0.649 4.561-1.94zM125.65 15.697v0c2.128 0 4.308-0.039 6.533-0.111 0.357 0 0.603-0.059 0.733-0.175 0.136-0.111 0.235-0.317 0.24-0.61 0.107-5.716-6.643-4.158-7.506 0.896z"></path>
<path fill="#fefefe"  d="M165.43 13.397h0.109c1.598-2.807 3.827-3.709 5.38-3.709 0.658 0 1.215 0.211 1.662 0.633 0.454 0.428 0.677 0.882 0.677 1.368 0 0.685-0.751 2.065-1.368 2.335-0.443 0.195-0.785 0.151-1.029-0.077-0.343-0.321-0.644-0.533-0.888-0.658-0.241-0.123-0.524-0.185-0.837-0.185-0.498 0-1.037 0.293-1.611 0.87-0.577 0.58-1.718 1.722-2.115 2.758l0.019 6.302c0.001 0.491 0.007 0.863 0.019 1.125s0.058 0.525 0.147 0.78c0.089 0.256 0.192 0.435 0.313 0.544 0.115 0.102 0.306 0.214 0.575 0.32 0.267 0.105 0.569 0.173 0.888 0.205 0.326 0.032 0.767 0.064 1.317 0.102v1.438h-9.273v-1.438c0.665-0.051 1.157-0.109 1.483-0.178s0.595-0.218 0.805-0.448c0.211-0.23 0.339-0.518 0.39-0.863s0.077-0.857 0.077-1.547v-7.678c0-0.467-0.006-0.825-0.019-1.087s-0.058-0.511-0.128-0.742c-0.077-0.229-0.153-0.403-0.237-0.505-0.083-0.108-0.23-0.21-0.441-0.313-0.211-0.096-0.428-0.166-0.646-0.205s-0.53-0.083-0.946-0.147l0.017-1.497c2.058-0.326 3.949-0.851 5.675-1.573l-0.017 4.072z"></path>
<path fill="#fefefe"  d="M70.24 14.858l1.417-0.385c0 0-0.364-2.775-0.909-4.204 0 0-2.838-1.354-4.889-1.041s-3.418 0.826-4.548 2.792c-1.13 1.966-0.856 4.775 0.908 6.187s1.946 1.32 3.927 2.287c1.98 0.967 2.778 1.96 2.608 3.633s-2.522 1.895-3.424 1.686c-0.902-0.209-2.679-0.614-3.829-4.47l-1.49 0.235c0 0 0.267 4.021 0.684 4.793 0 0 1.709 1.297 4.772 1.256s4.708-1.37 5.569-2.383 1.628-3.564 0.248-5.607c-1.38-2.042-4.385-2.808-4.916-3.099-0.542-0.298-2.803-1.113-2.747-3.169s2.057-2.69 3.169-2.395c1.113 0.296 2.381 0.878 3.451 3.883z"></path>
<path fill="#fefefe"  d="M80.095 5.946l-0.484-0.106-2.7 2.535v2.637h-1.664l-1.001 1.055 0.164 0.697h2.508l0.067 11.146c0 0 0.068 2.7 2.061 3.443s2.804-0.013 4.065-0.563l1.768-0.889-0.524-1.313c0 0-3.566 1.946-4.132-1.51 0 0-0.080-0.364-0.107-0.868l-0.008-9.436 3.85 0.004c0 0 0.883-0.782 0.248-1.772h-4.107l-0.005-5.058z"></path>
</symbol>
</defs>
</svg>
